<?xml version="1.0" standalone="no"?>
<!DOCTYPE svg PUBLIC "-//W3C//DTD SVG 20010904//EN"
 "http://www.w3.org/TR/2001/REC-SVG-20010904/DTD/svg10.dtd">
<svg version="1.0" xmlns="http://www.w3.org/2000/svg"
 width="402.000000pt" height="402.000000pt" viewBox="0 0 402.000000 402.000000"
 preserveAspectRatio="xMidYMid meet">
<metadata>
Created by potrace 1.14, written by Peter Selinger 2001-2017
</metadata>
<g transform="translate(0.000000,402.000000) scale(0.100000,-0.100000)"
fill="#000000" stroke="none">
<path d="M1435 3490 c-11 -4 -23 -6 -27 -3 -5 2 -8 -1 -8 -6 0 -6 -7 -11 -16
-11 -8 0 -215 -199 -460 -442 -245 -244 -449 -444 -455 -446 -5 -2 -9 -10 -9
-17 0 -7 -4 -15 -10 -17 -5 -1 -96 -88 -201 -193 -240 -238 -261 -276 -228
-413 11 -44 48 -84 668 -704 455 -455 670 -664 701 -680 66 -33 151 -34 215
-1 37 18 183 157 570 543 286 286 577 576 647 645 73 73 135 144 146 168 27
56 25 156 -3 210 -11 22 -175 194 -365 382 l-344 344 -98 -98 c-54 -54 -98
-100 -98 -103 0 -2 135 -139 300 -303 255 -255 300 -304 300 -328 0 -25 -79
-108 -572 -598 -314 -312 -575 -566 -580 -563 -4 3 -17 7 -27 9 -11 2 -274
257 -585 567 -516 515 -564 565 -559 590 4 19 149 170 482 502 673 672 656
655 677 651 11 -2 22 -4 26 -4 4 -1 60 -53 125 -116 64 -63 118 -115 119 -115
6 0 194 193 194 199 0 14 -318 320 -349 336 -37 19 -143 28 -176 15z"/>
<path d="M2460 3493 c-66 -21 -140 -90 -658 -607 -748 -745 -723 -720 -746
-763 -28 -55 -30 -145 -5 -202 15 -35 103 -130 367 -393 191 -192 351 -348
357 -348 11 0 195 181 195 192 0 3 -139 145 -310 315 -302 301 -310 309 -301
338 6 20 167 188 492 512 696 693 641 642 675 635 22 -4 171 -147 592 -566
482 -481 562 -565 562 -590 0 -24 -81 -109 -562 -588 -310 -308 -570 -564
-579 -568 -24 -13 -66 17 -185 136 l-107 107 -90 -92 c-49 -50 -94 -91 -98
-91 -26 0 6 -39 149 -180 161 -160 192 -186 233 -197 30 -8 127 -8 156 0 52
14 26 -12 1264 1221 128 128 153 172 147 259 -2 34 -12 78 -22 99 -13 28 -822
846 -1289 1304 -48 47 -95 67 -162 69 -33 2 -67 0 -75 -2z"/>
</g>
</svg>
